<?xml version="1.0" encoding="iso-8859-1"?>
<!-- Generator: Adobe Illustrator 19.0.0, SVG Export Plug-In . SVG Version: 6.00 Build 0)  -->
<svg version="1.1" id="Capa_1" xmlns="http://www.w3.org/2000/svg" xmlns:xlink="http://www.w3.org/1999/xlink" x="0px" y="0px"
	 viewBox="0 0 512 512" style="enable-background:new 0 0 512 512;" xml:space="preserve">
<g>
	<g>
		<path d="M488,8H24C10.745,8,0,18.745,0,32v352c0,4.418,3.582,8,8,8h182.24l-12.8,64H160c-4.418,0-8,3.582-8,8v24h-16v16h240v-16
			h-16v-24c0-4.418-3.582-8-8-8h-17.453l-12.8-64H504c4.418,0,8-3.582,8-8V32C512,18.745,501.255,8,488,8z M328,472h16v16H168v-16
			h16H328z M193.76,456l12.788-64h98.892l12.8,64H193.76z M496,376H16v-72h480V376z M56,288V64h400v224H56z M496,288h-24V56
			c0-4.418-3.582-8-8-8H48c-4.418,0-8,3.582-8,8v232H16V32c0-4.418,3.582-8,8-8h464c4.418,0,8,3.582,8,8V288z"/>
	</g>
</g>
<g>
	<g>
		<path d="M256,312c-13.255,0-24,10.745-24,24s10.745,24,24,24s24-10.745,24-24S269.255,312,256,312z M256,344c-4.418,0-8-3.582-8-8
			c0-4.418,3.582-8,8-8c4.418,0,8,3.582,8,8C264,340.418,260.418,344,256,344z"/>
	</g>
</g>
<g>
	<g>
		<path d="M80,80c-4.418,0-8,3.582-8,8v24h16V96h16V80H80z"/>
	</g>
</g>
<g>
	<g>
		<path d="M200,96h-48c-4.418,0-8,3.582-8,8v48c0,4.418,3.582,8,8,8h48c4.418,0,8-3.582,8-8v-48C208,99.582,204.418,96,200,96z
			 M160,112h20.692L160,132.692V112z M192,144h-20.68L192,123.32V144z"/>
	</g>
</g>
<g>
	<g>
		<rect x="232" y="104" width="16" height="16"/>
	</g>
</g>
<g>
	<g>
		<rect x="264" y="104" width="16" height="16"/>
	</g>
</g>
<g>
	<g>
		<rect x="232" y="136" width="128" height="16"/>
	</g>
</g>
<g>
	<g>
		<path d="M200,184h-48c-4.418,0-8,3.582-8,8v48c0,4.418,3.582,8,8,8h48c4.418,0,8-3.582,8-8v-48C208,187.582,204.418,184,200,184z
			 M192,232h-32v-32h32V232z"/>
	</g>
</g>
<g>
	<g>
		<rect x="232" y="192" width="16" height="16"/>
	</g>
</g>
<g>
	<g>
		<rect x="264" y="192" width="16" height="16"/>
	</g>
</g>
<g>
	<g>
		<rect x="232" y="224" width="128" height="16"/>
	</g>
</g>
<g>
</g>
<g>
</g>
<g>
</g>
<g>
</g>
<g>
</g>
<g>
</g>
<g>
</g>
<g>
</g>
<g>
</g>
<g>
</g>
<g>
</g>
<g>
</g>
<g>
</g>
<g>
</g>
<g>
</g>
</svg>
